<?xml version="1.0" encoding="UTF-8"?>
<svg id="cutt" data-name="Layer 2" xmlns="http://www.w3.org/2000/svg" viewBox="0 0 300 457">
  <defs>
    <style>
      .cls-1 {
      fill: #4e3822;
      }
    </style>
  </defs>
  <path class="cls-1"
    d="m94.52,98.44l-5.17,5.5-11.63,19.39-8.39,24.13-6.44,25.58-2.46,20.85-1.17,21.76.85,20,1.38,12.37,1.87,11.9,1.63,8.49.55,2.41,3.21-.79.85-.81.43-1.73.16,1.04-.03,1.3-.84,1.1-1.19,1.27-1.78,1.67,4.31,15.98,5.5,15.78,2.71,6.12.62,1.15.51,1.85.12.3.48-.81-.04-1.3.66.11.22.37.38.48.33.7.26.64.86,1.58v2.53l.98.23.68.44.22.73-.64.83.13,1.89.74.45,1.41,2.34,1.08.15s1.48.24,1.38,1.07l-1.02,1.35,1.35,2.25,3.85,4.85.55-.92s.5-1.62-.69-2.05c0,0,.2-1.2,1.94-.79s1.51,1.77,1.51,1.77c0,0,.98-1.57,2.6-.71,0,0,.83.58,2.24-.28,0,0,1.19-.43,1.49.07l-.54,1.35.16,2.34-.41,1.6-2.07,1.15v1.09l1.42-.53,1.06.09.87,2.15-.28.31-.78.16-.77.93.56.61.78,1.06,1.28-.85h1.82l1.08.78.91.08.37.51-.15.5-.53.11v1.9l3.74,2.16,2.73,1.16,2.45.98,3.04.97,2.01.5,3.26.43h4.13l4.23-.27,3.96-1.62-.14-.69-3.11-.68-1.93-2.21-.7-3.45.54-2.28,1.53-2.17,2.4-1.05,3.12.27,1.67.78,1.74,1.08,1.55.59.5.1,2.21-.76.28-2.78,1.16-.22.92.2,2.09-2.83.84-.48.69.75,1.83,2.62,2.1-.72.56.37.76,3.4,3.34-1.59,3.42-1.46,2.07.15,1.61.42,1.49,1.4,1.07,2.01.49,2.25-.25,2.69-1.83,2.51-2.65.21h-1.59l.16.27.15.38,1.74,1.36,1.94.85,2.2.8,2.23.41,2.55.34,2.97-.17,2.79-.25,2.95-.81,4.64-1.49,3.49-1.82,2.8-2.23h.6s.38-1.87.38-1.87l-.17-.57-.65-.41.65-.39,1.51-.9,1.19-.14,1.24.63.59-1.45.16-.74-.49-.99-1.26-.14-.27-.26.32-1.42,1.34-1.21.81-.16-.97-1.29-.07-2-.4-1.11-.65-.76h-.86l-.11-.66.84-.6,1.31-.3.98.3.86,1.26,1.46-.91,1.81.17s.27.31.33.43.44.31.44.31l.77-.44.65-.46h.95l.73.14.08.55-.2,1.36.54,1.1.37,1.01.5-1.1,1.37-1.57,3.5-5.27-.44-2.73.43-.47,1.11-.08h1.1s.9-1.98.9-1.98l-.14-1.6-.34-.62-.76-.46-.08-.43.73-.58,1.44-.2.79.1v-1.68l.27-1.74,1.56-3.27.58-.36.29.67.57,1.01.63-1.32,2.73-6.57,2.85-7.42,1.59-4.53,1.32-4.03,1.55-4.8,1.69-5.79,1.39-5.66,1.16-4.43v-2.19l1.79-2.1-.62-1.37.71-4.05,1.49-8.86.77-5.62.73-6.34.56-6.32.38-6.85.15-8.25-.08-6.89-.16-7.09-.46-7.78-.56-6.27-1.22-9.61-1.7-10.43-2.04-9.12-1.78-7.82-2.88-10-3.17-9.44-1.39-3.83-1.78-4.12-2.42-4.78-4.4-7.58-3.53-5.25-3.29-4.28-3.56-4.37-2.41,1.64-1.01.91-1.14.28-1.42,1.03-2.15.51-2.08-.51-1.38.18-1.61-.32-1.32-1.42-1.59-2.13-.24-.81-1.23-1.24-.45-.57-.15-1.82-.46.23-.9-1.45.32-1.38-.76-.73-.4-1.26-.62-.59.41-.82-1.25-3.03-.1-1.24-4.15-.81-.89,3.26.18,1.5-.33.81.17,1.45-.59,1.32.07,1.34h-.74l-.4-.18-.06,1.32-.31,1.24-.96.24-.47.28-3.59,5.3-2.71,2.97-1.83,1.6-1.34,1.64-.92-.34-.6,1-2.08.09-.66.87h-1.28l-1.27,1.29-.91-.12-1.09.61-1.24.18-.75.84-1.87-.49-1.24-.04-.98-.88-.54,1.26-.78.49-1.45.06-.58.07-.3.14-1.16-.25-1.08-.84-.31.32-1.34.5-1.1-.65-1.08.35-1.2-.83-1.51.3-.44-.35-.11-.69-.37-.88-.48.41h-.66l-.34-.21-1.43-.55h-.97l-.89-.94-.84.22-.56-.59-.67-.54-.55.25-.64-.59-.2-1-.82-.47-.21.5-1.07-.39v-.6l-.61-.84-.48-.37-.1-.94-1.01-.24-.83-1.48-1.41-.95v-.66l-.71-.43-.63-1.38-.88-1.78-.33-.21-.84-.51-.1-.79.33-.65h-1.55l-.25-.34.5-.72-.57-1.39.32-1.41-.84-.32-.18-.82.15-1.19-.52-1.8-.81-2.67-4.65.84-.68,4.91-.83,2.04v1.23s-.85.69-.85.69l-.08,1.56-.99.47-.25,1.33-.94.66v1.39l-.6.82-.67.18-.61,1.1-1.41.16-.63.36-.64.37-2.58,1.16-1.4-.31-.47.72-1.53-.56-.65-.35h-1.01l-1.12-.35-1.09-1.03-.41-1.37-1.36-1.11-.66-.16Z" />
  <polygon class="cls-1"
    points="189.8 85.67 191.87 86.11 193.78 87.13 195.46 88.08 196.97 88.8 197.93 89.31 198.48 89.38 198.97 90.05 199.4 90.54 200.15 90.43 200.87 91.25 201.62 91.46 202.82 92.4 203.88 93.12 204.58 93.85 205.55 94.54 206.5 95.54 207.06 96.1 206.65 97.33 204.81 97.62 203.85 98.84 202.51 98.49 201.38 98.54 200.9 98.84 200.41 98.98 199.75 98.79 199.33 98.75 199.11 98.42 198.93 98.15 198.54 97.54 197.94 96.98 197.45 96.84 197.26 96.7 197.38 96.24 196.97 95.87 196.27 95.63 195.83 95.12 195.25 94.63 194.97 94.36 194.53 94.14 194.81 93.64 194.48 93.32 193.86 93.22 193.13 92.47 193.03 92.02 192.62 91.88 192.29 91.12 192.26 90.57 191.71 90.18 191.42 89.61 191.53 89.27 191.15 88.68 190.65 88.47 189.91 87.19 189.55 86.07 189.59 85.64 189.8 85.67" />
  <path class="cls-1"
    d="m183.31,83.7s-4.82-1.07-8.62.55-4.15,2.46-4.15,2.46h.92l1.7-.05,1.54.5.62.39.75.62.56.91.43.78.23,2.06-.48,1.76-.96,1.39-1.55,1.04-1.14.5-2.3-.1-2.4-.67-2.47-1.19-2.43-.88-1.38-.64h-1s-.58.38-.58.38h-.58s-.72,1.24-.72,1.24l-.64.31.14,1.24-.87,1.08-.67.41h-1.33s-.89,1.62-.89,1.62l-1.63,1.01-.81,1.17-.55-.45v-.41l-1.45-1.7-.59-1.61-.55.36-1.34-.56-.93-1.38-.15-.66.34-.52h-1.27l-.72-1.14-.25-.92-.81-.25-.88.11-.21.24-1.03.31-1.49.77-1.71.89-1.06.39-1.13,1.04-2.22.81-1.33.06-1.49-.2-1.88-1.02-1.13-1.41-.55-1.44v-2.02l.89-2.18.9-.79,1.99-.84,1.67.17.43-.39-2.26-1.54-4.35-1.51-2.8-.22-3.11.02.21,1.56,1.17,2.66,1.02.67.38,1.36.14.61.92.41.4,1.17.62.27.06.89.71.55.11.69-.11.38.68.5.48.84-.14.89.42.77.41.45.86-.45.54.3.37.39,1.03-.08.99.34.43.45v.41l.08.82.3.23.81-.08-.43.6,1.21.69h1.46s.55.38.55.38l1.81.54-.18.72.87.83h.37l.18-.66,1.14-.36.76.52.82.51.95.2-.22.29.12.97.19.24h.61l.32-.78.86-.05,1.49.63.52-.46,1.42.69,1,.96.97-.75,1.33-.39.69-.27,2.32.06.6.52,1.27-.81,1.3-.21.87.23.79.22.36-1.29,1-.24.44-.39,1.32.45,1-.73h1.02s.6-.67.6-.67l1.05.19,1.16-.57.29-.18.12-.91,1.21.16,1.02-.58,1.14-.58,1.09-.33.55-1.18.55-.05.93.09.22-.94.62-.35.66.26v-1.29l.73-.28.51-1.04h.9s-.31-1.03-.31-1.03l.15-.49.96-.24.22-.3h.74l.15-.5-1.02.2-.42-.39.08-.26.34-.36.97-2.24.64-.79v-1.32l.99-1.04.87-2.74Z" />
  <path class="cls-1"
    d="m98.03,95.2s8.06-8.68,16.7-9.88l-.26,1.07-.86.87v1.03s-.8.53-.8.53l-.26,1.44-.69.54-.71,1.08-.79.56-.1,1.75-.56.76-1.06.24-.57.77.33.93-1.07-.13-.83.51-.75.53-.84.32-.38.47-.96-.64-1.16.37-.44-1.31-.54-.25-.74.51-1.17-.77-1.02.39-.34-1.37-.12-.34Z" />
</svg>