<svg width="186" height="273" viewBox="0 0 186 273" fill="none" xmlns="http://www.w3.org/2000/svg">
<mask id="mask0_72_1806" style="mask-type:alpha" maskUnits="userSpaceOnUse" x="0" y="0" width="186" height="273">
<path d="M51.5782 3.12927L57.5525 1.46972L61.6308 0.932647L62.837 4.62204L62.8133 6.01739L63.0262 7.12893L63.8066 7.41273L63.5465 8.28778L63.6647 9.06823L63.5938 10.6528L63.8776 11.3859H65.3912L64.9891 12.4975L66.3135 13.3252L67.4251 15.6902L68.6076 16.5653L68.6549 17.6295L69.6482 18.4809L70.2394 19.1904L71.7057 20.0891L72.1078 21.4372L73.8106 23.542L74.6856 23.1872L76.9324 25.434L78.8953 26.0016L82.7502 27.728L83.4834 27.1841L84.0746 29.0288L85.943 28.7686L87.362 29.0288L88.9465 29.7146L91.0041 28.8869L92.3994 29.8565L95.6395 29.6437L96.6801 28.7923L98.714 28.9105L100.913 29.1707L102.049 28.8159L103.113 27.8699H105.17L106.235 26.6874L107.89 26.6165L108.387 25.9306H109.948L110.444 24.7481L111.698 24.9137L112.549 23.5893L113.353 22.7852L114.37 22.6433L114.749 21.1061L116.428 20.3966L117.799 18.7647L119.597 17.0146L121.087 13.3962L122.648 12.7576L122.553 10.3453L123.546 10.8183L124.043 10.5109L123.807 10.0852L124.138 8.99728L124.256 6.37214L124.374 4.92949L124.942 1.4766L125.817 0.696167L129.388 2.04421L130.499 5.26061L130.452 6.98705L131.114 7.8148L131.162 8.477L131.871 9.2811L131.824 10.4399L132.723 12.2846L133.219 12.3083L133.574 13.9874L134.638 15.6666L135.3 15.8794L135.088 16.6835L136.081 18.0552L138.28 19.9236L139.912 20.6567L141.142 20.0182L142.466 20.6331L144.784 20.4675L145.281 19.758L146.25 19.8999L146.818 19.0012L148.142 18.8357L149.49 17.2984L151.453 16.4234L152.234 17.3221L155.261 20.9169L159.116 26.1435L162.947 32.0324L166.258 37.8975L168.316 41.8234L170.799 47.6177L172.62 52.9153L175.576 62.0205L177.397 68.2641L179.81 78.1261L181.844 87.6334L183.553 99.3113L184.474 106.702L185.236 114.808L185.64 123.355L185.866 130.963L185.828 139.341L185.396 149.054L184.615 157.122L183.769 165.162L182.481 173.55L181.258 180.32L181.145 181.58L181.898 182.022L180.873 183.574L179.848 184.561L180.017 185.868L179.509 188.426L178.099 194.209L177.046 198.12L174.034 207.838L170.9 217.105L166.71 227.701L165.135 231.295L164.921 231.249L164.416 229.934L164.019 229.735L162.948 231.05L161.878 234.108L161.832 236.83C161.608 236.769 160.933 236.656 160.028 236.692C159.123 236.729 158.856 237.523 158.835 237.916C158.978 238.013 159.346 238.255 159.676 238.451C160.006 238.647 159.987 240.357 159.936 241.188L159.202 242.564L157.214 242.549L156.327 242.931L156.236 243.482L156.557 243.711L156.908 246.173L153.621 250.959L152.214 252.763L151.541 253.513L150.731 250.531L151.006 249.72C150.914 249.675 150.664 249.568 150.394 249.506C150.125 249.445 149.263 249.644 148.865 249.751L147.703 250.653C147.423 250.388 146.878 249.855 146.939 249.843C147 249.831 145.527 249.858 144.783 249.873L143.636 250.454L143.299 249.751L142.413 249.048L140.7 249.17L139.92 249.72L139.782 250.454L140.394 250.577L140.868 250.73L141.709 252.091L141.648 253.895L142.397 255.225L142.489 255.776L141.205 256.311L140.364 257.733L140.394 258.788L141.189 258.467L142.015 259.063L142.367 260.654L141.77 261.617L141.419 262.045L140.715 261.495L139.874 261.357L139.079 261.571L138.177 262.305L137.091 262.764L137.211 263.014C138.007 263.545 137.764 265.005 137.543 265.669L136.547 266.001L133.892 267.992L130.904 269.652L127.917 270.648L124.598 271.643L122.275 271.975L120.615 272.307H119.288C115.57 272.573 113.092 271.975 112.317 271.643C107.804 270.581 106.232 268.546 106.011 267.661C106.564 268.435 108.335 269.387 110.99 266.997C113.645 264.607 112.317 260.469 111.322 258.699C109.463 256.309 106.786 256.376 105.679 256.708L103.024 257.371L101.033 258.699L99.0411 259.363L98.7092 258.367C98.5986 257.703 98.3109 256.309 98.0454 256.044C97.7799 255.778 96.3858 256.154 95.722 256.376L93.3987 253.389H92.7348L92.071 253.72L90.0796 256.376H88.42C88.1545 256.376 87.8669 257.703 87.7562 258.367H86.0967C85.8311 258.367 85.7648 259.474 85.7648 260.027H85.1009L83.4414 259.363L81.118 258.035L79.7904 257.371H79.1266C76.2058 256.84 74.5905 258.257 74.148 259.031L73.1522 260.359L72.4884 262.018L72.8203 264.673L73.816 266.665L76.4713 268.988H78.4628V269.32L77.799 269.984L74.8118 270.98L70.165 271.643H66.5141L64.5226 271.312L62.8631 270.98L60.8716 270.648L58.8801 269.984C56.2249 269.453 51.1356 266.665 48.9229 265.337V263.346H49.5867V262.682L48.9229 262.35L47.9272 262.018L47.2633 261.686H46.9314L46.2676 261.354L45.2719 261.686L44.2762 262.35L43.2804 261.354L42.6166 260.691L43.6123 259.695L44.6081 259.363L44.2762 258.699H43.9443L43.6123 257.703L42.6166 257.04L41.289 257.703V256.708L43.2804 255.048L43.6123 253.389V251.397L44.2762 250.401L43.9443 249.738H43.2804L41.6209 250.401H40.6252L39.9613 250.069H38.9656L38.3018 250.401L37.638 250.733L37.3061 249.738L36.3104 249.074H34.9827L34.3189 249.738L34.9827 250.733V252.393L34.3189 253.057L30.9998 248.742L29.3403 246.087L29.6722 244.759H30.336L30.0041 243.763L29.3403 243.431L27.6807 243.099L27.0169 242.104L26.0212 240.444L25.3574 239.116L26.0212 238.121V237.457L25.6893 236.793L25.0255 236.461H24.0297L24.3616 233.806L23.3659 232.146L23.034 231.151L22.3702 230.155L21.3745 229.823L21.7064 231.483L21.0425 232.146L20.0468 229.159L17.7235 224.181L11.4172 206.921L8.76192 196.632L7.43429 190.658L9.09383 189.33L10.7534 187.671L11.4172 186.011L11.0853 184.683L10.7534 186.011L10.0896 186.675L8.76192 187.339L8.0981 187.671H6.43856L5.44283 182.692L3.78329 175.058L2.45566 166.096L1.45993 158.795L0.464203 141.203V126.267L1.45993 108.344L3.11947 97.0595L5.44283 83.4512L10.4215 63.2048L14.0725 52.2518L18.3873 41.2988L21.7064 34.6606L25.3574 28.6862L31.9955 19.3928L36.3104 14.0823L41.9528 9.10363L47.2633 5.45263L51.5782 3.12927Z" fill="#D9D9D9"/>
</mask>
<g mask="url(#mask0_72_1806)">
<rect x="-45.5414" y="-33.7283" width="278.148" height="339.812" fill="#D9D9D9"/>
</g>
</svg>
