<?xml version="1.0" encoding="UTF-8"?>
<svg id="a" data-name="Layer 1" xmlns="http://www.w3.org/2000/svg" viewBox="0 0 987.05 997.44">
  <path d="m980.89,785.24c.69,17.71,1.38,35.41,2.08,53.1-5.19,6.06-3.86,35.54,2.06,45.55-.7,7.83-1.4,15.67-2.1,23.49,0-.01-1.01.23-1.01.23l-.13,1.04c-5.88,12.58-16.86,21.17-25.6,31.35-25.01,29.15-56.13,47.72-95.4,51.98-28.28,3.07-56.36,7.46-84.9,4.44.01,0-.16-.83-.16-.83l-.36.69c-5.23-.18-10.46-.36-15.68-.55.01,0-.31-.55-.31-.55l-.34.56c-9.2,2.19-18.33-.5-27.47-.43-2.8-1.23-5.52-1.31-8.06.71-54.33-.1-108.31-4.81-160.15-21.32-38.65-12.31-76.28-28.07-113.79-43.67-31.95-13.29-63.39-27.92-94.48-43.13-29-14.19-60.12-23.44-88.41-39.19-36.68-20.42-71.95-43.45-103.15-71.12-19.53-17.32-37.31-38.71-43.15-66.37-4.29-20.3-18.5-29.33-37.54-32.95-58.7-11.18-76.97-48.95-82.46-106.87-2.25-23.76,6.51-43.91,17.49-63.95,13.57-24.78,27.49-49.59,32.14-78.02,2.77-16.89,11.18-31.31,20.37-44.86,7.6-11.2,10.22-22.32,10.31-35.47.14-19.92-3.07-40.06,2.59-59.79,6.49-22.61,18.21-41.99,35.11-58.32,6.26-6.05,11.59-13.3,18.56-18.31,10.18-7.32,5.85-13.18-1.21-17.59-13.23-8.27-26.41-16.59-42.76-18.66-11.98-1.52-22.49-8.15-32.17-15.44-7.1-5.34-6.11-12.96-3.86-19.83,4.26-13,29.18-30.31,43.04-30.78-4.48,5.67-4.77,10.33,2.79,13.73,4.35,1.95,8.07,5.36,13.2,5.41,1.11,7.65,3.76,15.3-.05,22.93-14.87,2.28-25.88-5.54-36.42-14.2-3.63-2.98-7.16-4.67-10.72-1-3.56,3.68-3.7,8.55-.3,12.31,6.46,7.15,12.63,13.68,24.63,11.05,10.29-2.25,21.69-2.84,31.2,4.58,7.89,5.19,15.73,10.45,23.68,15.56,5.17,3.32,11.77,6.8,16.66,2.68,14.88-12.54,23.67-2.08,31.49,7.99,15.47,19.91,31.57,38.97,52.64,53.26,6.65,9,12.78,18.45,20.09,26.89,9.08,10.49,17.94,21.54,31.48,26.94,3.45,3.69,7.15,7.27,5.79,13.09-24.81,7.28-43.02.39-51.11-19.94-6.22-15.65-16.49-28.73-31.1-37.2-7.95-4.61-15.33-9.41-22.06-15.69-9.36-8.74-12.18-7.41-14.93,5.9-12.11,8.6-27.6,12.59-28.39,33.14-.37,9.68-8.23,20.97-17.4,28.7-18.45,15.54-27.4,37.35-37.29,58.38-9.75,20.76-19.96,41.45-21.85,64.9-.07.85-.66,1.72-1.17,2.47-14.23,20.89-11.6,48.44-27.12,68.89-1.41,1.86-.65,5.34-.96,8.06-1.24,10.88-2.39,21.78-3.79,32.65-3.79,29.35-.4,57.04,17.13,82.07,4.94,7.06,9.97,11.46,19,10.07,10.04-1.55,15.21,3.3,17.22,13.09,2.67,12.96,11.57,16.61,21.06,7.01,14.87-15.05,33.03-18.53,52.18-17.43,24.67,1.41,44.81-10.36,66.24-18.99,9.12-3.67,15.19-10.15,19.68-18.26,12.21-22.06,19.24-45.99,22.29-70.82,1.24-10.1,5.72-12.25,14.24-11.6,13.77,1.04,25.32,7.4,35.39,16.03,20.75,17.77,46.44,24.8,71.24,33.65,5.74,2.05,13.38,2.65,18.94.62,17.68-6.46,36.85-5.17,54.37-11.48,24.01-8.65,53.83-12.53,66.07-35.99,18.11-34.73,47.26-66.71,31.12-113.92-6.68-19.52-12.49-35.86-28.65-48.09-.07-3.35-.13-6.69-.2-10.04,24.65,5.98,49.66,15.56,74.3,1.99,29.71-16.36,48.17-28.69,46.41-65.58-1.47-30.76-3.9-61.32-13.79-90.86-10.47-31.27-17.2-63.02-3.14-95,5.24-11.91,3.31-20.77-6.08-29.42-6.6-6.08-13.98-11.9-15.2-22.13-1.94-16.2-13.16-26.64-29.73-26.92-38.29-.65-75.76-2.31-110.12,22.76-27.62,20.15-57.08,36.82-78.33,65.04-12.64,16.79-24.83,36.26-54.1,25.71-39.55-14.27-75.61,7.1-112.33,17.96-4.59,1.36-8.95,4.77-12.47,8.2-6.73,6.57-7.25,13.74.89,19.79,11.38,8.46,22.61,17.29,36.93,20.49,4.41,5.83,7.77,13.1,13.42,17.25,28.34,20.82,33.22,51.57,36.8,83.09-5.6,1.5-10.6-1.16-15.82-2.28.75-5.77-1.72-10.13-4.97-14.83-10.95-15.85-27.86-25.59-40.06-40.07,1.35-7.66-1.57-14.24-4.97-20.83-6.28-12.19-18.28-18.02-27.74-26.71-32.45-29.84-74.26-42.85-110.41-65.73,1.57-12.23-6.29-16.45-16.13-18.98,8.57-4.57,16.96-4.83,24.93,1.27,21.98,16.82,47.41,27.83,70.84,42.2,10.29,6.3,18.46,1.15,26.9-4.8,28.51-20.1,59.46-33.02,94.82-36.66,13.72-1.42,28.02.61,41.51-4.5,4.6-1.74,10.25-1.49,13.49,3.67,5.4,8.6,11.64,6.28,17.34,1.05,9.44-8.66,19.41-17.05,27.34-27,33.03-41.46,75.07-70.33,126.21-81.75,36.52-8.16,73.94-3.94,110.24,9.34,19.46,7.12,29.78,20.58,37.81,37.35,5.99,12.5,9.94,25.89,16.13,38.43,4.27,8.66-.79,17.72-4.35,25.9-2.72,6.25-2.71,11.46-.33,17.99,4.85,13.3,9.04,26.83,11.84,40.87,2.29,11.49,9.06,20.43,19.37,28.01,14.97,11.01,23.62,28.4,35.7,42.48,20.22,23.56,34.76,51.72,58.49,72.48,8.72,7.63,14.18,17.45,18.27,28.11-4.96,11.58-.6,18.87,12.65,21.16,3.17,6.01,6.35,12.03,9.52,18.03.54,18.99.36,38.38,23.93,45.19,3.71,2.13,2.43,6.18,3.58,9.28-8.41,11.36,1.95,21.53,1.98,32.27.07,28.22,17,45.47,37.72,60.58.4,2.06.79,4.13,1.19,6.19-10.12,8.74-12.11,22.94-3.24,35.13,6.93,9.52,9.47,19.51,8.77,30.8-1.38,22.12,1.92,43.78,8.77,64.6,2.55,7.76,3.34,20.56,17.85,17.51,1.64,3.71,4.18,7.21,2.66,11.63-4.63-.15-7.2,2.77-6.98,6.71.85,14.93.54,30.19,8.66,43.69,1.46,2.44,3.4,4.32,6.6,4,2.85,4.53,3.18,9.26,1.05,14.15-5.95-.88-8.52,1.82-8.36,7.69.16,5.79.41,11.38,8.33,11.49Zm-27.59,101.18c7.67-12.74,8.09-25.74,3.33-39.85-2.56-7.57-3.22-16.16-2.98-24.24.87-28.84-1.03-57.41-9-85.15-4.85-16.87,2.97-36.08-9.95-51.25-2.47-40.51-14.61-79.3-20.97-119.06-3.49-21.84-14.54-40.01-21.08-60.16-17.48-53.81-45.26-102.55-72.26-151.69-4.22-7.67-9.77-16.46-21.6-11.74-4.52,1.81-5.55-2.26-7.18-4.54-10.63-14.87-22.33-28.77-36.03-40.93-.17-3.2-1.03-6.53-.4-9.56,4.47-21.55-7.7-31.87-25.52-38.49-6.15-2.28-12.04-3.82-10.88,6.42-5.38,20.86-20.8,36.64-28.44,56.27-2.64,6.77-6.49,12.04-11.82,16.39-20.13,16.46-38.14,35.8-62.52,46.5-7.12,3.13-7.71,7.43-4.93,14.25,4.83,11.87,4.7,24.39,4.43,37.17-.37,17.99-9.95,31.86-17.41,46.86-16.75,33.67-39.87,61.18-73.99,78.61-24.53,12.53-50.7,21.17-77.08,27.45-17.94,4.27-37.69,9.19-56.54,1.25-31.63-13.33-56.3.93-78.34,20.93-13.67,12.41-27.05,24.57-44.05,32.14-9.62-3.83-18.22-13.6-29.89-3.64-8.45,7.2-22.19,2.88-29.77,12.11-12.63,15.37-29.36,14.98-46.41,12.57-13.84-1.96-18.74,2.97-14.23,16.26,1.45,4.27,3.44,8.7,6.32,12.08,10.02,11.73,16.3,25.09,19.83,40.01,2.28,9.65,5.24,19.13,7.9,28.69-.12,8.48,6.18,12.37,11.79,17,20.28,16.74,40.8,33.24,60.33,50.82,5.95,5.36,11.22,10.25,19.3,11.22,3.84,8.43,12.43,6.17,19,8.45,9.34,4.44,16.59,13.17,27.87,13.66,3.33,2.25,5.99,5.13,10.27,6.35,30.42,8.66,58.19,23.98,87.44,35.63,14.95,5.96,29.46,11.65,45.69,11.73,1.4,4.01,5.44,5.02,8.52,6.15,24.65,9.06,49.18,18.58,74.31,26.1,15.16,4.53,27.85,15.31,43.77,16.86,22.26,2.16,43.18,11.26,65.35,12.65,11.94.75,25.23,6.18,36.19-4.17,3.07.24,6.48-.57,8.51,2.82,2.33,8.16,7.96,4.59,12.86,3.61,6.75-.74,13.5-1.58,20.11.82,1.24,2.21,2.99,3.19,5.52,2.28,5.61.67,11.21,1.33,16.82,2,2.38,2.09,5.09,1.76,7.86,1.11,1.8,0,3.61,0,5.41,0,6.33.08,12.65.16,18.98.24,26.97,6.08,52.42.68,77.16-10.2,4.64,3.38,9.69,1.75,13.58-.47,27.29-15.54,59.3-25.6,72.19-58.61,2.62-6.7,9.21-13.66,2.6-21.75Zm-253.11-666.09c-.28-5.51-.15-11-3.1-15.95-2.93-4.92-6.38-9.28-12.94-7.74-6.59,1.55-5.82,7.16-6,12.14-.38,11.15,8.91,17.35,13.58,25.88,1.96,3.57,6.15,1.23,7.14-2.22,1.1-3.85.93-8.06,1.31-12.11Zm-531.92-.78c-.08-1.52-1.52-3.54-4.81-3.78-3.06-.22-5.59.62-5.33,4.28.26,3.72,2.7,5.79,6.32,5.69,2.52-.06,3.94-1.91,3.82-6.2Z" style="fill: #342512;"/>
  <path d="m968.92,685.88c-14.51,3.05-15.3-9.76-17.85-17.51-6.85-20.82-10.15-42.49-8.77-64.6.7-11.3-1.84-21.28-8.77-30.8-8.87-12.19-6.87-26.38,3.24-35.13,8.81,11.34,7.87,25.59,10.28,38.47,4.95,26.54,9.9,53.01,16.19,79.3,2.36,9.86,3.66,20.2,5.68,30.28Z" style="fill: #57840e;"/>
  <path d="m935.59,531.64c-20.72-15.11-37.65-32.37-37.72-60.58-.03-10.74-10.39-20.91-1.98-32.27,13.24,30.96,26.47,61.9,39.71,92.85Z" style="fill: #57840e;"/>
  <path d="m979.87,751.9c-3.2.32-5.14-1.56-6.6-4-8.12-13.51-7.81-28.76-8.66-43.69-.22-3.94,2.35-6.86,6.98-6.71,2.76,18.14,5.52,36.27,8.28,54.4Z" style="fill: #57840e;"/>
  <path d="m892.31,429.5c-23.57-6.81-23.39-26.2-23.93-45.19,9.7,14.16,18.6,28.73,23.93,45.19Z" style="fill: #57840e;"/>
  <path d="m985.02,883.89c-5.92-10.01-7.25-39.49-2.06-45.55.79,15.19,7.31,30.1,2.06,45.55Z" style="fill: #57840e;"/>
  <path d="m980.89,785.24c-7.92-.11-8.17-5.7-8.33-11.49-.16-5.86,2.41-8.57,8.36-7.69,3.17,6.4,3.01,12.79-.03,19.18Z" style="fill: #57840e;"/>
  <path d="m858.86,366.28c-13.25-2.29-17.61-9.58-12.65-21.16,5.7,6.17,9.78,13.31,12.65,21.16Z" style="fill: #57840e;"/>
  <path d="m723.49,996.03c2.54-2.02,5.26-1.94,8.06-.71-2.58,1.64-5.26,1.84-8.06.71Z" style="fill: #7eab0b;"/>
  <path d="m981.77,908.65l.13-1.04s1.01-.25,1.01-.23-.02,1.1-.02,1.1l-1.12.18Z" style="fill: #57840e;"/>
  <path d="m759.02,995.75l.34-.56s.32.55.31.55c-.01,0-.33.63-.33.63l-.33-.62Z" style="fill: #7eab0b;"/>
  <path d="m775.36,996.28l.36-.69s.17.84.16.83c-.01,0-.51-.14-.51-.14Z" style="fill: #7eab0b;"/>
  <path d="m755.58,297.81c13.7,12.16,25.4,26.06,36.03,40.93,1.63,2.29,2.66,6.35,7.18,4.54,11.83-4.72,17.38,4.06,21.6,11.74,27,49.15,54.78,97.88,72.26,151.69,6.54,20.14,17.59,38.32,21.08,60.16,6.35,39.76,18.49,78.55,20.96,119.06-2.24,3.08-2.64,6.67-3.33,10.32-6.65,35.38-6.17,71.16-5.07,106.83.79,25.53,1.35,49.1-14.13,72.66-14.27,21.71-9.81,30.38,8.37,44.39-15.07,14.85-33.98,23.63-52.37,33.25-6.2,3.24-12.41,6.86-3.25,13.87-24.73,10.88-50.18,16.27-77.14,10.2-6.29-3-12.62-2.76-18.99-.25-1.8,0-3.61,0-5.41,0-2.42-1.78-5.09-1.78-7.86-1.11-5.61-.67-11.21-1.33-16.81-1.99-1.2-2.29-2.77-3.72-5.53-2.29-6.62-2.41-13.37-1.57-20.1-.83-4.28-1.2-8.57-2.4-12.87-3.6-2.02-3.39-5.44-2.58-8.51-2.82-16.73-4.52-32.34-12.11-49.79-15.22-8.87-1.58-19.38,2.9-27.09-4.93,2.2-16.72-11.38-18.79-21.95-22.92-27.9-10.9-55.94-21.47-84.07-31.75-34.73-12.69-69.61-24.95-104.41-37.45-1.69-.61-3.28-1.66-4.74-2.75-12.23-9.14-25.96-15.05-40.1-20.69-13.03-5.2-27.44-11.58-34.07-24.17-11.11-21.09-24.86-40.47-36.32-61.29-15.55-28.27-18.09-60.17-26.57-90.39-1.94-6.93.38-13.58,5.52-18.94,17-7.57,30.37-19.73,44.05-32.14,22.04-20,46.71-34.26,78.34-20.93,18.85,7.94,38.6,3.02,56.54-1.25,26.38-6.28,52.55-14.92,77.08-27.45,34.12-17.43,57.24-44.94,73.99-78.61,7.46-14.99,17.04-28.87,17.41-46.86.26-12.78.4-25.3-4.43-37.17-2.78-6.82-2.19-11.13,4.93-14.25,24.37-10.7,42.39-30.05,62.52-46.5,5.33-4.36,9.19-9.63,11.82-16.39,7.64-19.63,23.06-35.41,28.44-56.27,10.59,1.23,12.93,10.48,17.07,17.82,5.16,9.15,10.04,18.43,19.71,23.81Zm6.84,462.74c-4.37-17.83-16.38-28.72-30.75-37.25-3.84-2.28-9.3-5.97-13.64-.93-4.06,4.72-1.22,9.64,2.24,13.44,10.05,11.03,20.35,21.83,30.63,32.64,1.96,2.06,4.48,3.49,7.13,1.05,2.77-2.55,4.3-5.8,4.38-8.95Zm-181.14,77.9c-2.93-.8-5.43.36-6.67,3.07-1.5,3.29,1.43,4.96,3.39,6.62,11.26,9.54,25.01,14.84,37.82,21.7,2.77,1.49,7.67,2.2,9.11-2.71,1.17-3.99,1.15-8.52-2.84-11.18-12.49-8.32-24.92-16.91-40.81-17.5Zm-175.81-105.71c6.8.76,9.24-2.72,7.91-9.78-2.02-10.7-19.17-25.75-30.1-27.04-3.81-.45-4.67.71-5.31,3.84-2.28,11.26,15.36,33.03,27.5,32.99Zm124.96-19.01c-5.76-.48-7.41,1.94-3.4,8.61,7.54,12.57,19.4,20.33,31,28.25,3.61,2.47,9.45,3.78,9.45-4.06,0-10.24-24.53-32.7-37.04-32.81Zm37.28-98.65c-5.6.66-9.12,4.42-7.72,10.1,2.62,10.62,7.9,20.28,14.01,29.3,2.88,4.25,7.19,2.9,10.97.61,3.95-2.39,3.91-5.84,2.14-9.49-4.16-8.59-8.36-17.17-12.71-25.67-1.25-2.43-3.1-4.54-6.7-4.86Zm107.77-96.58c-3.2.46-5.43,2.05-5.28,5.23.18,4.03.46,8.21,1.68,12.01,2.15,6.72,2.83,14.71,10.85,17.72,2.43.91,6.11,1.14,7.42-1.65,3.77-8.03-.98-15.03-4.08-21.85-2.14-4.72-4.45-10.1-10.59-11.46Zm121.41,352.06c7.01-.28,13.72-3.37,12.35-10.89-2.07-11.33-12.66-7.58-20.18-7.88-4.1-.16-11.95-2.83-10.55,5.72,1.54,9.4,9.12,12.83,18.38,13.06Zm-50.08-213c0-3.39.25-5.25-.05-7.02-1.01-5.99-2.67-11.77-9.38-13.74-3.57-1.05-7.48-1-10.12,2.15-4.65,5.57.22,10.18,2.03,15.03.79,2.12,1.9,4.14,3.02,6.11,2.22,3.93,4.42,9.23,9.55,8.32,6.76-1.21,4.58-7.72,4.94-10.85Zm-372.21,148.54c-.21-.87-.36-1.77-.64-2.62-2.06-6.28-19.08-16.13-26.07-15.24-2.42.31-5.43,1.1-4.97,3.47,1.84,9.56,9.8,13.52,17.51,17.39,2.4,1.21,5.14,1.99,7.81,2.37,3.83.54,5.89-1.61,6.37-5.37Zm331.21-349.07c-.15-2.27.39-4.89-.57-6.74-3.48-6.74-3.93-19.54-14.27-16.29-10.57,3.32-2.27,13.1-.96,20.03.41,2.16,1.81,4.16,2.87,6.17,1.99,3.78,4.85,7.73,9.2,7.04,5.91-.93,2.68-6.64,3.72-10.21Zm73.51,24.15c-1.99-5.84-3.97-12.86-6.83-19.5-1.57-3.63-4.54-7.85-9.35-5.8-4.08,1.73-2.84,6.47-2.12,9.75,1.46,6.61,3.56,13.09,5.72,19.51,1.18,3.5,3.55,7.6,7.34,6.91,4.35-.79,5.16-5.5,5.25-10.88Zm56.44,295.9c4.76-.16,9.88-.91,8.89-6.21-1.68-8.96-7.93-15.16-16.51-18.08-4.3-1.47-7.29,1.56-6.45,5.99,1.59,8.46,3.27,17.31,14.07,18.3Zm31.71-93.84c-2.44-4.74-1.69-9.91-2.58-14.8-1.25-6.88-7.66-8.73-12.54-7.59-6.26,1.45-1.5,6.8-.9,10.34.83,4.95,2,9.9,3.62,14.65,1.16,3.4,3.12,7.89,7.09,7.34,5-.69,2.81-6.83,5.31-9.94Zm-156.21-322.71c.18-8.16-8.18-16.44-16.24-17.22-4.7-.45-6.88,3.14-5.51,5.34,4.65,7.43,7.29,17.53,16.59,20.23,6.17,1.79,4.58-4.98,5.16-8.35Zm-402.09,360.31c1.09,3.43.16,11.43,7.07,10.95,8.7-.6,7.48-9.87,8.82-16.07,1.07-4.96-1.72-7.53-6.94-7.33-7.11.28-9.17,4.6-8.95,12.44Zm38.32-100.79c-1.08-3.62,2.48-10.35-4.88-10.27-7.94.08-8.41,7.12-8.8,13.03-.31,4.65.25,10.28,6.37,9.98,7.56-.37,6.78-7.16,7.31-12.74Zm462.57-167.17c.15-6.73-1.07-11.42-7.66-11.61-5.4-.16-8.55,3.01-8.32,8.34.27,6.38,3.24,11.92,10.13,12.1,6.23.16,5.65-5.67,5.85-8.82Zm-360.74,387.48c.22-7.07-6.04-8.14-11.74-9.49-4.57-1.08-7.08,1.74-7.12,5.87-.07,8.22,6.3,10.31,12.67,11.4,4.66.8,6.24-2.55,6.19-7.78Zm352.76-230.05c-.21-4.34-1.27-9.12-7.99-9.47-5.02-.26-6.03,3.1-5.95,7.14.1,5.26,1.17,10.75,7.08,11.6,4.98.72,6.69-3.66,6.86-9.28Zm-81.74-285.02c4.65.02,9.16-.69,9.19-5.98.04-6.53-6.6-5.78-10.19-6.25-4.3-.56-7.34,3.91-7.18,8.14.2,5.34,5.21,3.53,8.18,4.1Zm129.3,206.72c-4.31.62-6.39,3.77-6.11,8.49.27,4.67,2.52,8.18,7.65,7.47,5.06-.7,6.06-4.91,5.89-9.32-.16-4.25-2.06-6.91-7.43-6.63Zm-25.56,35.81c-.38-4.57-.28-9.72-6.26-10.39-4.24-.48-4.89,3.23-4.9,6.51,0,4.95,2.09,9.32,6.97,10.34,5,1.04,3.63-3.72,4.18-6.45Zm-163.6,146.4c-.81-4.24-3.94-5.61-7.84-5.71-3.14-.08-6.96-.27-6.67,4.37.27,4.39,3.68,5.9,7.64,5.93,3.15.03,6.55.1,6.86-4.59Z" style="fill: #bf411f;"/>
  <path d="m546.31,347.75c.07,3.35.13,6.69.2,10.04-1.07,4.92-2.72,9.79-3.11,14.75-3.52,44.89-20.76,83.77-50.61,117.28-10.68,11.99-22.14,21.34-39.91,20.45-11-.55-21.87-3.07-32.72-2.81-25.37.61-46.19-10.12-65.07-24.98-36.69-28.9-66.03-31.33-105.34-7.48-25.63,15.56-49.79,31.88-61.25,62.11-5.97,15.76-27.71,15.37-36.29.2-6.78-11.98-11.4-24.85-11.26-39.16.15-14.6.19-29.12-2.16-43.8-3.09-19.34.48-37.28,13.18-54.23,14.64-19.54,20.65-42.98,15.51-67.69-3.79-18.25-.48-35.05,10.35-49.41,9.03-11.97,12.25-24.12,9.12-38.38,2.75-13.31,5.56-14.64,14.93-5.9,6.73,6.28,14.11,11.08,22.06,15.69,14.61,8.47,24.87,21.56,31.1,37.2,8.08,20.33,26.3,27.22,51.11,19.94,7.06-.82,10.83-5.56,13.62-11.46-3.58-31.52-8.46-62.27-36.8-83.09-5.65-4.15-9-11.42-13.41-17.25.48-6.52,3.48-9.6,10.51-9.59,9.6,0,17.11-5.34,20.51-13.81,6.24-15.53,18.7-19.84,33.01-18.5,16.55,1.55,34.95,2.13,44.93,18.5,9.98,16.38,17.63,17.82,32.54,4.71,8.58-7.55,12.02-17.87,18.03-26.77,13.8-20.42,28.57-40.2,43.52-59.8,12.3-16.13,30.87-24.15,48-33.34,14.62-7.84,30.37,1.04,45.66,1.55,12.15.4,23,4.42,29.46,14.62,7.54,11.92,13.52,24.87,19.62,37.64,3.84,8.06,3.51,16.05-3.91,22.47-5.18,4.48-5.73,10.03-3.96,16.26,3.25,11.4,5.32,23.07,10.9,33.84,4.17,8.04,9.19,16.82,9.55,25.44,1.11,26.26,9.59,51.06,13.17,76.78,2.44,17.53-1.88,23.66-19.41,24.74-22.93,1.42-45.22,6.43-66.57,14.88-7.76,3.07-15.03,7.87-8.81,18.36Zm-201.65-98.41c-.6-2.67-.08-8.57-5.67-7.69-6.56,1.04-5.91,8.34-7.36,13.25-1.25,4.25,1.17,7.24,5.87,6.74,6.68-.7,7.25-5.79,7.15-12.3Z" style="fill: #7eab0b;"/>
  <path d="m186.95,244.65c3.13,14.27-.09,26.41-9.12,38.38-10.83,14.36-14.15,31.16-10.35,49.41,5.14,24.72-.87,48.16-15.51,67.69-12.7,16.95-16.27,34.88-13.18,54.23,2.35,14.68,2.31,29.19,2.16,43.8-.14,14.31,4.48,27.18,11.26,39.16,8.58,15.17,30.32,15.56,36.29-.2,11.46-30.24,35.62-46.56,61.25-62.11,39.31-23.86,68.64-21.42,105.34,7.48,18.88,14.87,39.7,25.59,65.07,24.98,10.84-.26,21.72,2.26,32.72,2.81,17.76.89,29.23-8.46,39.91-20.45,29.84-33.51,47.09-72.4,50.61-117.28.39-4.97,2.04-9.84,3.11-14.75,16.17,12.23,21.98,28.57,28.65,48.09,16.14,47.21-13,79.19-31.12,113.92-12.24,23.46-42.06,27.34-66.07,35.99-17.53,6.31-36.69,5.02-54.37,11.48-5.56,2.03-13.2,1.43-18.94-.62-24.8-8.84-50.49-15.88-71.24-33.65-10.07-8.62-21.63-14.99-35.39-16.03-8.53-.64-13,1.51-14.24,11.6-3.05,24.83-10.08,48.76-22.29,70.82-4.49,8.11-10.56,14.59-19.68,18.26-21.43,8.63-41.57,20.4-66.24,18.99-19.15-1.1-37.3,2.38-52.18,17.43-9.49,9.6-18.39,5.96-21.06-7.01-2.02-9.79-7.18-14.64-17.22-13.09-9.03,1.39-14.06-3.01-19-10.07-17.53-25.04-20.92-52.72-17.13-82.07,1.4-10.86,2.55-21.76,3.79-32.65.31-2.72-.45-6.21.96-8.06,15.53-20.46,12.89-48,27.12-68.89.51-.75,1.1-1.62,1.17-2.47,1.89-23.45,12.1-44.14,21.85-64.9,9.89-21.04,18.84-42.84,37.29-58.38,9.17-7.72,17.03-19.02,17.4-28.7.79-20.55,16.28-24.54,28.39-33.14Z" style="fill: #57840e;"/>
  <path d="m546.31,347.75c-6.22-10.49,1.05-15.28,8.81-18.36,21.35-8.45,43.64-13.47,66.57-14.88,17.53-1.08,21.85-7.22,19.41-24.74-3.58-25.73-12.06-50.52-13.17-76.78-.36-8.63-5.38-17.4-9.55-25.44-5.58-10.77-7.65-22.44-10.9-33.84-1.78-6.23-1.22-11.78,3.96-16.26,7.42-6.42,7.75-14.41,3.91-22.47-6.09-12.77-12.07-25.72-19.62-37.64-6.46-10.2-17.3-14.22-29.46-14.62-15.29-.51-31.04-9.38-45.66-1.55-17.13,9.18-35.7,17.21-48,33.34-14.95,19.6-29.72,39.39-43.52,59.8-6.01,8.89-9.45,19.22-18.03,26.77-14.91,13.11-22.56,11.67-32.54-4.71-9.98-16.37-28.38-16.96-44.93-18.5-14.32-1.34-26.78,2.97-33.01,18.5-3.4,8.47-10.91,13.82-20.51,13.81-7.04,0-10.03,3.07-10.51,9.59-14.33-3.19-25.56-12.02-36.94-20.48-8.13-6.05-7.62-13.23-.89-19.79,3.52-3.43,7.88-6.84,12.47-8.2,36.72-10.86,72.77-32.23,112.33-17.96,29.26,10.56,41.46-8.92,54.1-25.71,21.25-28.22,50.7-44.88,78.33-65.04,34.37-25.07,71.83-23.41,110.12-22.76,16.57.28,27.78,10.72,29.73,26.92,1.23,10.23,8.6,16.06,15.2,22.13,9.39,8.65,11.32,17.51,6.08,29.42-14.06,31.98-7.33,63.73,3.14,95,9.89,29.54,12.32,60.1,13.79,90.86,1.76,36.89-16.69,49.22-46.41,65.58-24.64,13.57-49.65,3.99-74.3-1.99Z" style="fill: #57840e;"/>
  <path d="m268.1,634.03c-5.14,5.36-7.46,12.01-5.52,18.94,8.48,30.23,11.01,62.13,26.57,90.39,11.45,20.82,25.21,40.2,36.32,61.29,6.63,12.6,21.04,18.97,34.07,24.17,14.15,5.64,27.88,11.55,40.1,20.69,1.46,1.09,3.04,2.15,4.74,2.75,34.8,12.5,69.68,24.76,104.41,37.45,28.14,10.28,56.17,20.85,84.07,31.75,10.57,4.13,24.15,6.21,21.95,22.92-7.48-1.28-13.34-6.31-21.01-7.89-24.41-5.03-48.49-11.5-72.97-16.46-19.12-3.87-36.99-13.7-57.28-13.09-16.23-.08-30.74-5.77-45.69-11.73-29.25-11.65-57.02-26.97-87.44-35.63-4.28-1.22-6.95-4.1-10.28-6.35-1.86-3.5-3.57-7.09-5.61-10.48-6.37-10.62-11.57-11.32-22.26-3.18-6.57-2.28-15.16-.02-19.01-8.44-.03-7.67,1.78-17.09-7.71-19.88-12.38-3.64-18.47-14.17-27.64-21.24-17.85-13.77-30.2-35.99-56.06-37.92-2.66-9.56-5.62-19.04-7.9-28.69-3.53-14.92-9.8-28.28-19.83-40.01-2.89-3.38-4.87-7.81-6.32-12.08-4.51-13.29.38-18.22,14.23-16.26,17.04,2.41,33.78,2.8,46.41-12.57,7.58-9.22,21.32-4.91,29.77-12.11,11.67-9.95,20.27-.19,29.89,3.64Z" style="fill: #7c0f08;"/>
  <path d="m920.53,920.12c-18.18-14-22.65-22.67-8.37-44.38,15.49-23.56,14.92-47.13,14.13-72.66-1.1-35.66-1.58-71.45,5.07-106.83.69-3.64,1.09-7.23,3.33-10.32,12.92,15.17,5.1,34.38,9.95,51.25,7.98,27.74,9.87,56.31,9,85.15-.24,8.08.42,16.66,2.98,24.24,4.76,14.1,4.34,27.11-3.33,39.85-8.36,1.19-9.07,8.76-11.66,14.48-3.36,7.41-7.12,14.12-15.45,16.79-1.12.6-2.24,1.2-3.36,1.81-.75.25-1.51.46-2.29.63Z" style="fill: #7c0f08;"/>
  <path d="m115.92,152.44c3.8-7.64,1.15-15.29.05-22.93,0,0-.18.15-.18.15,36.15,22.89,77.97,35.9,110.42,65.74,9.46,8.69,21.46,14.52,27.74,26.71,3.39,6.59,6.31,13.17,4.97,20.83-3.67-1.05-4.74-6.86-9.25-5.49-.94.28-.62,4.71-.88,7.23-21.07-14.28-37.17-33.35-52.64-53.26-7.82-10.06-16.61-20.53-31.49-7.99-4.89,4.12-11.49.63-16.66-2.68-7.95-5.1-15.79-10.36-23.68-15.56,3.25-8.23-6.11-8.15-8.38-12.74Z" style="fill: #57840e;"/>
  <path d="m181.86,752.1c25.86,1.94,38.21,24.15,56.06,37.92,9.17,7.08,15.25,17.6,27.64,21.24,9.49,2.79,7.69,12.21,7.71,19.88-8.07-.98-13.35-5.87-19.3-11.23-19.53-17.59-40.05-34.08-60.33-50.82-5.61-4.63-11.91-8.51-11.79-17Z" style="fill: #bf411f;"/>
  <path d="m248.78,244.67c.26-2.52-.06-6.94.88-7.23,4.51-1.37,5.58,4.45,9.25,5.49,12.2,14.48,29.11,24.22,40.06,40.07,3.25,4.71,5.72,9.07,4.97,14.84-1.2.22-2.4.43-3.6.65-13.54-5.4-22.4-16.45-31.48-26.94-7.3-8.44-13.43-17.89-20.09-26.89Z" style="fill: #7eab0b;"/>
  <path d="m755.58,297.81c-9.67-5.38-14.55-14.66-19.71-23.81-4.14-7.34-6.48-16.59-17.07-17.82-1.17-10.24,4.73-8.71,10.87-6.42,17.81,6.62,29.99,16.94,25.52,38.49-.63,3.03.23,6.37.4,9.56Z" style="fill: #7c0f08;"/>
  <path d="m115.92,152.44c2.28,4.59,11.64,4.51,8.38,12.74-9.51-7.42-20.91-6.83-31.2-4.58-12,2.62-18.17-3.9-24.63-11.05-3.4-3.76-3.25-8.63.3-12.31,3.55-3.68,7.09-1.98,10.72,1,10.54,8.67,21.55,16.49,36.42,14.2Z" style="fill: #f4fabc;"/>
  <path d="m700.19,220.32c-.38,4.05-.21,8.27-1.31,12.11-.99,3.45-5.19,5.79-7.14,2.22-4.67-8.53-13.96-14.73-13.58-25.88.17-4.98-.6-10.59,6-12.14,6.56-1.54,10.01,2.82,12.94,7.74,2.95,4.95,2.82,10.44,3.1,15.95Z" style="fill: #57840e;"/>
  <path d="m292.27,839.6c10.69-8.14,15.88-7.44,22.26,3.18,2.04,3.39,3.75,6.99,5.61,10.48-11.28-.49-18.52-9.22-27.87-13.66Z" style="fill: #bf411f;"/>
  <path d="m99.65,110.68c9.84,2.53,17.7,6.75,16.13,18.98,0,0,.18-.15.18-.15-5.13-.06-8.85-3.46-13.2-5.41-7.56-3.4-7.27-8.05-2.79-13.73,0,0-.33.31-.33.31Z" style="fill: #f4fabc;"/>
  <path d="m300.34,298.5c1.2-.22,2.39-.43,3.6-.65,5.23,1.12,10.23,3.78,15.82,2.28-2.79,5.9-6.56,10.64-13.63,11.46,1.36-5.82-2.35-9.39-5.79-13.09Z" style="fill: #57840e;"/>
  <path d="m168.27,219.54c.12,4.28-1.3,6.14-3.82,6.2-3.61.09-6.06-1.98-6.32-5.69-.26-3.66,2.27-4.5,5.33-4.28,3.29.24,4.72,2.25,4.81,3.78Z" style="fill: #57840e;"/>
  <path d="m700.2,967.37c4.29,1.2,8.59,2.4,12.87,3.6-4.91.99-10.54,4.56-12.87-3.6Z" style="fill: #57840e;"/>
  <path d="m768.78,977.2c6.37-2.52,12.7-2.75,18.99.25-6.33-.08-12.66-.16-18.99-.25Z" style="fill: #57840e;"/>
  <path d="m733.17,971.8c2.76-1.43,4.33,0,5.53,2.29-2.53.89-4.29-.08-5.53-2.29Z" style="fill: #57840e;"/>
  <path d="m755.51,976.08c2.77-.66,5.44-.67,7.86,1.11-2.77.64-5.48.97-7.86-1.11Z" style="fill: #57840e;"/>
  <path d="m762.43,760.55c-.08,3.15-1.61,6.4-4.38,8.95-2.65,2.44-5.17,1.02-7.13-1.05-10.29-10.81-20.58-21.61-30.63-32.64-3.46-3.8-6.3-8.72-2.24-13.44,4.33-5.04,9.8-1.35,13.64.93,14.37,8.53,26.38,19.42,30.75,37.25Z" style="fill: #7c0f08;"/>
  <path d="m581.29,838.46c15.9.59,28.33,9.18,40.81,17.5,3.99,2.66,4.01,7.19,2.84,11.18-1.44,4.91-6.34,4.2-9.11,2.71-12.81-6.86-26.56-12.16-37.82-21.7-1.97-1.67-4.9-3.33-3.39-6.62,1.24-2.71,3.73-3.87,6.67-3.07Z" style="fill: #342512;"/>
  <path d="m405.48,732.75c-12.14.04-29.78-21.72-27.5-32.99.64-3.14,1.5-4.29,5.31-3.84,10.93,1.29,28.08,16.35,30.1,27.04,1.33,7.06-1.11,10.54-7.91,9.78Z" style="fill: #342512;"/>
  <path d="m530.44,713.74c12.51.11,37.04,22.57,37.04,32.81,0,7.84-5.84,6.52-9.45,4.06-11.6-7.92-23.45-15.68-31-28.25-4.01-6.68-2.35-9.09,3.4-8.61Z" style="fill: #342512;"/>
  <path d="m567.72,615.08c3.6.31,5.45,2.42,6.7,4.86,4.35,8.5,8.55,17.08,12.71,25.67,1.77,3.65,1.8,7.1-2.14,9.49-3.78,2.29-8.09,3.64-10.97-.61-6.11-9.03-11.39-18.69-14.01-29.3-1.4-5.69,2.12-9.44,7.72-10.1Z" style="fill: #342512;"/>
  <path d="m675.49,518.51c6.14,1.36,8.45,6.74,10.59,11.46,3.1,6.83,7.85,13.82,4.08,21.85-1.31,2.79-4.99,2.56-7.42,1.65-8.02-3.01-8.7-11-10.85-17.72-1.22-3.8-1.5-7.98-1.68-12.01-.14-3.18,2.09-4.78,5.28-5.23Z" style="fill: #7c0f08;"/>
  <path d="m796.9,870.56c-9.26-.23-16.84-3.65-18.38-13.06-1.4-8.55,6.45-5.89,10.55-5.72,7.52.3,18.11-3.45,20.18,7.88,1.37,7.53-5.34,10.61-12.35,10.89Z" style="fill: #7c0f08;"/>
  <path d="m746.82,657.57c-.36,3.13,1.82,9.65-4.94,10.85-5.12.92-7.33-4.39-9.55-8.32-1.12-1.98-2.23-3.99-3.02-6.11-1.81-4.85-6.68-9.47-2.03-15.03,2.63-3.16,6.54-3.2,10.12-2.15,6.71,1.97,8.37,7.75,9.38,13.74.3,1.77.05,3.63.05,7.02Z" style="fill: #7c0f08;"/>
  <path d="m374.62,806.14c-.49,3.72-2.55,5.88-6.38,5.34-2.67-.38-5.4-1.16-7.81-2.37-7.72-3.87-15.68-7.83-17.51-17.39-.46-2.37,2.55-3.16,4.97-3.47,6.99-.89,24.01,8.96,26.07,15.24.28.85.43,1.75.65,2.65Z" style="fill: #7c0f08;"/>
  <path d="m705.82,457.08c-1.05,3.53,2.19,9.24-3.73,10.17-4.35.68-7.21-3.26-9.2-7.04-1.06-2.01-2.46-4.01-2.87-6.17-1.31-6.93-9.61-16.71.96-20.03,10.33-3.25,10.79,9.55,14.27,16.29.96,1.85.42,4.47.57,6.78Z" style="fill: #7c0f08;"/>
  <path d="m779.33,481.18c-.09,5.38-.9,10.09-5.25,10.88-3.78.69-6.16-3.41-7.34-6.91-2.16-6.42-4.27-12.91-5.72-19.51-.72-3.29-1.96-8.02,2.12-9.75,4.82-2.05,7.79,2.17,9.35,5.8,2.86,6.64,4.84,13.66,6.83,19.5Z" style="fill: #342512;"/>
  <path d="m835.77,777.09c-10.8-.99-12.48-9.84-14.07-18.3-.83-4.43,2.15-7.46,6.45-5.99,8.58,2.92,14.83,9.11,16.51,18.08.99,5.31-4.13,6.05-8.89,6.21Z" style="fill: #7c0f08;"/>
  <path d="m867.48,683.25c-2.5,3.11-.31,9.25-5.31,9.94-3.97.55-5.94-3.95-7.09-7.34-1.61-4.75-2.78-9.7-3.62-14.65-.6-3.54-5.35-8.89.9-10.34,4.89-1.13,11.3.71,12.54,7.59.89,4.89.14,10.06,2.58,14.8Z" style="fill: #342512;"/>
  <path d="m711.27,360.54c-.58,3.37,1.01,10.14-5.16,8.35-9.3-2.7-11.94-12.8-16.59-20.23-1.38-2.2.81-5.79,5.51-5.34,8.06.78,16.42,9.06,16.24,17.22Z" style="fill: #342512;"/>
  <path d="m309.18,720.85c-.22-7.84,1.84-12.17,8.95-12.44,5.22-.2,8.01,2.38,6.94,7.33-1.34,6.2-.12,15.47-8.82,16.07-6.91.48-5.99-7.52-7.07-10.95Z" style="fill: #7c0f08;"/>
  <path d="m347.5,620.06c-.53,5.58.25,12.37-7.31,12.74-6.12.3-6.68-5.33-6.37-9.98.39-5.91.86-12.95,8.8-13.03,7.37-.08,3.81,6.65,4.88,10.27Z" style="fill: #342512;"/>
  <path d="m810.07,452.89c-.2,3.15.38,8.99-5.85,8.82-6.89-.18-9.86-5.72-10.13-12.1-.22-5.33,2.92-8.49,8.32-8.34,6.59.19,7.81,4.88,7.66,11.61Z" style="fill: #7c0f08;"/>
  <path d="m449.33,840.37c.05,5.23-1.52,8.57-6.19,7.78-6.37-1.09-12.74-3.17-12.67-11.4.04-4.13,2.54-6.95,7.12-5.87,5.7,1.34,11.97,2.41,11.74,9.49Z" style="fill: #7c0f08;"/>
  <path d="m802.09,610.32c-.17,5.62-1.88,9.99-6.86,9.28-5.92-.85-6.98-6.35-7.08-11.6-.08-4.04.93-7.4,5.95-7.14,6.73.35,7.78,5.12,7.99,9.47Z" style="fill: #7c0f08;"/>
  <path d="m720.35,325.3c-2.97-.57-7.98,1.24-8.18-4.1-.16-4.23,2.89-8.7,7.18-8.14,3.59.47,10.23-.28,10.19,6.25-.03,5.29-4.54,6-9.19,5.98Z" style="fill: #342512;"/>
  <path d="m849.65,532.02c5.36-.27,7.27,2.39,7.43,6.63.17,4.42-.83,8.62-5.89,9.32-5.13.71-7.38-2.8-7.65-7.47-.27-4.72,1.8-7.87,6.11-8.49Z" style="fill: #7c0f08;"/>
  <path d="m824.1,567.83c-.55,2.74.82,7.5-4.18,6.45-4.88-1.02-6.98-5.39-6.97-10.34,0-3.27.65-6.99,4.9-6.51,5.98.68,5.88,5.82,6.26,10.39Z" style="fill: #7c0f08;"/>
  <path d="m660.5,714.23c-.31,4.69-3.72,4.62-6.86,4.59-3.96-.04-7.37-1.54-7.64-5.93-.29-4.64,3.52-4.45,6.67-4.37,3.89.1,7.03,1.48,7.84,5.71Z" style="fill: #7c0f08;"/>
  <path d="m344.66,249.34c.1,6.51-.47,11.6-7.15,12.3-4.71.5-7.12-2.5-5.87-6.74,1.44-4.9.79-12.21,7.36-13.25,5.59-.88,5.07,5.02,5.67,7.69Z" style="fill: #57840e;"/>
  <path d="m926.18,917.68c-.62,1.53-1.46,2.64-3.36,1.81,1.12-.6,2.24-1.2,3.36-1.81Z" style="fill: #bf411f;"/>
</svg>