<?xml version="1.0" encoding="UTF-8"?>
<svg id="a" data-name="Layer 1" xmlns="http://www.w3.org/2000/svg" viewBox="0 0 1000 1000">
  <path
    d="m854.2,806.42c-25.26,3.53-50.46,9.33-75.79,9.98-28.19.73-57.3.29-84.59-5.9-55.01-12.48-108.88-29.92-163.56-43.99-61.4-15.8-112.73-51.37-166.2-82.68-31.61-18.51-62.31-38.64-92.87-58.87-32.86-21.76-65.82-43.49-97.4-67.02-55.01-40.98-107.14-85.76-150.7-138.82-25.28-30.78-29.07-69.22-12.17-105.53,15.6-33.53,34.83-65.89,64.86-89.38,44.67-34.95,95.22-47.59,151.18-37.53,35.82,6.44,71.77,12.35,107.31,20.13,13.64,2.98,26.21,10.71,39.41,15.89,32.78,12.87,65.44,26.11,98.54,38.1,51.79,18.76,101.4,41.28,148.05,71.21,50.1,32.15,103.39,59.35,153.41,91.62,38.05,24.55,75.21,51.35,109.02,81.38,34.51,30.65,64.89,66.05,96.21,100.17,16.23,17.67,21.7,39.73,20.24,63.7-1.82,30-6,60.54-22.35,85.28-23.19,35.09-56.81,56.66-101.49,54.98-6.9-.26-13.81-.04-20.72-.04-.13-.9-.26-1.79-.39-2.69Z"
    style="fill: #e3b47344;" />
</svg>