<?xml version="1.0" encoding="UTF-8"?>
<svg id="a" data-name="Layer 1" xmlns="http://www.w3.org/2000/svg" viewBox="0 0 1000 1000">
  <path d="m746.73,154.51c-1.19,30.96-12.89,59.36-22.25,88.2-34.45,106.13-74.77,210.16-112.96,314.96-23.48,64.42-50.47,127.45-72.68,192.31-46.05,6.24-86.83-1.19-114.12-43.85-.64-1-2.37-1.3-3.58-1.93-.79-21.88,5.3-42.81,12.43-62.74,22.12-61.85,35.69-126.06,54.16-188.9,23.07-78.54,55.5-153.9,78.44-232.39,12.46-42.62,26.71-84.52,41.71-126.23,2.33-6.47,3.84-13.45,9.78-17.97,6.35,16,23.39,16.42,35.35,24.25-38.1,98.83-82.38,195.16-115.31,296.13-28.98,88.85-60.95,176.74-85.3,267.06-3.81,14.14-10.54,28.59-4.74,47.94,10.09-17.51,11.34-32.84,15.48-47.34,33-115.79,71.01-230,112.91-342.83,26.91-72.48,54.36-144.89,90.14-213.7,5.7.97,12.17-.65,16.5,4.91-6.53,19.67-12.2,39.68-19.72,58.96-45.29,116.06-88.66,232.86-128.49,350.88-21.22,62.87-37.12,127.51-60.72,189.69-1.45,3.83-6.54,9.89.01,12.67,7.35,3.13,8.82-4.6,11.01-9.33,2.02-4.38,3.1-9.18,4.79-13.72,33.54-90.16,53.43-184.71,89.17-274.26,27.45-68.81,52.29-138.69,76.93-208.57,11.93-33.83,30.16-65.51,35.4-101.66,8.57,4.7,18.53,7.04,25.22,14.93-6.74,9.81-11.02,20.63-14.17,32.1-22.01,80.18-53.09,157.37-77.9,236.72-33.68,107.71-71.29,214.44-112.4,319.75-1.56,3.99-7.24,9.3-.73,12.49,6.15,3.01,7.46-3.42,9.31-7.99,3.64-9,8.39-17.58,11.62-26.71,40.29-114.21,82.81-227.61,117.89-343.68,22.2-73.47,49.53-145.39,74.55-218,10.6,2,10.96,16.75,22.27,17.87Z" style="fill: #ce913f;"/>
  <path d="m635.72,53.4c27.55-60.16,24.6-56.94,97.39-46.67,13.14,1.85,26.79,8.45,37.6,16.39,14.84,10.92,23.42,25.65,17.88,46.61-5.34,20.19-13.99,38.81-21.66,57.96-7.6-17.85-24.66-23.75-40.41-30.18-23.17-9.45-45.5-20.19-66.11-34.32-7.59-5.2-15.33-9.36-24.68-9.79Z" style="fill: #e28a9c;"/>
  <path d="m477.93,826.14c-1.02,12.26-10.15,19.35-17.64,27.39-15.21,16.33-30.84,31.89-37.47,54.62-4.58,15.69-31.29,25.94-49.99,20.31-24.34-7.32-47.54-17.84-73.04-22.06-31.63-5.23-61.99,6.64-70.76,30.35-10.33,27.89,1.99,45.86,32.03,47.8,5.64.36,16.24-5.53,16.21,6.07-.03,12.16-11.53,7.66-17.85,7.74-29.07.4-49.16-17.09-49.66-41.95-.69-33.84,23.68-62.47,55.65-64.01,32.78-1.58,65.21-.27,95.26,15.94,7.86,4.24,16.96,6.89,26.21,5.48,14.42-2.19,24.66-8.35,24.22-25.45-.6-22.93.11-45.9-.72-68.82-.26-7.27-.94-13.78,4.78-19.18,20.93,8.59,41.86,17.18,62.79,25.76Z" style="fill: #a17436;"/>
  <path d="m477.93,826.14c-20.93-8.59-41.87-17.17-62.79-25.76.38-24.83.92-49.65,1.02-74.48.03-7.74.26-15.16,4.98-21.7,1.22.63,2.95.93,3.59,1.93,27.29,42.66,68.07,50.09,114.12,43.85-20.37,25.33-35.83,54.6-60.91,76.17Z" style="fill: #f0c994;"/>
  <path d="m635.72,53.4c9.35.43,17.09,4.59,24.68,9.79,20.61,14.13,42.95,24.87,66.11,34.32,15.75,6.43,32.81,12.32,40.41,30.18,5.37,18.03-16.48,15.6-20.19,26.81-11.31-1.12-11.68-15.87-22.28-17.86-2.72-1.56-5.45-3.13-8.17-4.69-6.68-7.89-16.65-10.22-25.22-14.93-2.79-1.55-5.58-3.1-8.37-4.64-4.33-5.57-10.8-3.95-16.5-4.91-4.4-2.41-8.79-4.83-13.18-7.25-11.96-7.83-29-8.24-35.35-24.25.71-11.77,7.57-18.62,18.05-22.56Z" style="fill: #a19892;"/>
  <path d="m682.69,112.37c2.79,1.55,5.58,3.09,8.37,4.64-5.24,36.16-23.47,67.83-35.4,101.67-24.64,69.88-49.47,139.77-76.93,208.57-35.73,89.56-55.62,184.1-89.17,274.26-1.69,4.54-2.77,9.35-4.79,13.72-2.18,4.72-3.66,12.45-11.01,9.33-6.55-2.79-1.47-8.84-.01-12.67,23.6-62.17,39.5-126.82,60.72-189.69,39.83-118.02,83.2-234.81,128.49-350.88,7.52-19.28,13.2-39.29,19.72-58.96Z" style="fill: #a17436;"/>
  <path d="m653.01,100.21c4.39,2.42,8.79,4.84,13.18,7.25-35.78,68.8-63.23,141.22-90.14,213.69-41.89,112.83-79.9,227.04-112.91,342.83-4.13,14.5-5.38,29.83-15.48,47.34-5.79-19.35.93-33.79,4.74-47.94,24.34-90.32,56.31-178.21,85.3-267.06,32.93-100.96,77.21-197.3,115.31-296.13Z" style="fill: #a17436;"/>
  <path d="m716.29,131.95c2.72,1.57,5.44,3.13,8.17,4.69-25.02,72.61-52.35,144.53-74.55,217.99-35.08,116.07-77.61,229.46-117.89,343.68-3.22,9.13-7.97,17.71-11.62,26.71-1.85,4.57-3.17,11-9.31,7.99-6.51-3.18-.83-8.49.73-12.49,41.12-105.3,78.72-212.04,112.4-319.75,24.81-79.35,55.89-156.55,77.9-236.72,3.15-11.48,7.43-22.29,14.17-32.1Z" style="fill: #a17436;"/>
</svg>