<?xml version="1.0" encoding="UTF-8"?>
<svg id="a" data-name="Layer 1" xmlns="http://www.w3.org/2000/svg" viewBox="0 0 1000 1000">
  <path
    d="m313.14,154.83c116.06,5.75,229.03,27.83,335.29,76.64,61.42,28.21,121.79,59.19,180.53,92.63,61.61,35.08,115.16,79.86,143.32,148.28,9.05,21.98,25.97,43.48,26.66,65.6,1.62,51.94,5.39,103.34-24.82,153.65-35.65,59.38-86.68,90.68-147.05,116.02-56.92,23.9-116.04,28.95-176.24,35.5-79.75,8.67-157.7-.37-233.3-20.21-93.52-24.55-185.55-54.6-268.9-107.87-73.24-46.81-111.86-114.16-135.95-193.7-22.7-74.97-14.85-146.46,23.23-214.71,22.33-40.02,58.52-66.37,93.72-93.47,53.9-41.51,113.55-65.63,183.52-58.36Z"
    style="fill: #e3b47344;" />
</svg>