<?xml version="1.0" encoding="UTF-8"?>
<svg id="a" data-name="Layer 1" xmlns="http://www.w3.org/2000/svg" viewBox="0 0 1000 1000">
  <path d="m730.95,1.07c22.26,1.09,44.65-2.44,66.89,3.22,13.15,3.35,20.27,10,23.11,23.23,13.49,62.94,27.66,125.6,34.2,189.95,5.44,53.47,17.12,106.28,23.74,159.67,5.1,41.14,11.59,82.18,13.04,123.77,1.88,53.91,10.18,107.24,16.37,160.74,6.04,52.22,13.02,104.37,21.36,156.27,3.17,19.74,1.69,39.59,5.28,59.2,3.32,18.14-7,33.04-30.44,34.27-52.91,2.78-100.68,25.66-152.03,34.5-94,16.2-187,35.86-283.48,36.22-54.57.2-110.47-.73-164.41,14.97-21.63,6.3-43.51-8.72-48.88-30.4-15.98-64.41-22.81-130.4-33.26-195.75-10.75-67.22-16.38-135.1-24.87-202.61-12.13-96.43-32.85-191.48-43.08-288.2-6.31-59.63-16.44-118.85-24.63-178.29-2.58-18.74,8.16-28.49,26.85-31.67,25.54-4.34,50.45-12.26,75.74-18.19,65.92-15.47,132.1-25.09,200.45-26.31,68.43-1.22,136.93-10.25,205.07-19.79,30.58-4.28,61.73-7.7,92.96-4.81Zm1.8,493.67c-4.05-63.93-26.67-113.4-69.67-153.52-15.86-14.8-34.11-25.35-55.41-29.18-29.06-5.23-58.37-.68-87.56-.2-11.32.19-19.06,7.8-19.28,19.08-.24,12.11,8.1,19.86,19.6,21.08,10.31,1.1,20.87.93,31.49-1.08,24.92-4.71,51.38-5.89,71.84,10.13,47.74,37.4,75.16,85.73,66.31,148.83-3.73,26.57-13.4,51.92-24.56,76.02-16.29,35.2-41.04,60.82-84.41,58.65-7.36-.37-14.86,1.21-22.24,2.26-77.42,10.95-145.27-25.18-178.81-95.47-5.38-11.28-10.14-23.02-7.98-35.89,9.59-57.23,16.92-115.62,73.59-149.84,5.27-3.18,9.64-7.85,14.41-11.85,9.84-8.25,17.27-17.85,7.72-30.25-9.99-12.96-21.97-8.93-32.8-.57-11.33,8.75-21.75,18.68-33.21,27.24-26.64,19.9-42.41,46.79-51.25,78.13-4.71,16.71-6.99,34.2-12.68,50.53-14.46,41.5-3.37,77.88,19.63,112.55,11.39,17.17,24.13,33.2,38.43,48.07,18.25,18.97,40.33,30.87,65.64,37.27,46.48,11.76,93.4,11.41,140.73,6.37,25.52-2.71,45.68-14.06,63.86-31.38,46.49-44.29,55.8-103.26,66.62-156.98Zm-219.54,97.34c21.87-.17,40.02-9.17,57.64-29.79,9.35-10.94,19.94-22.76,6.63-37.44-8.6-9.5-21.64-5.12-35.55,10.7-2.05,2.33-4.17,4.63-6.47,6.71-15.42,13.96-33.42,13.67-47.54-1.92-8.8-9.71-18.25-14.19-28.95-5.4-11.19,9.19-9.73,21.2-1.28,31.5,14.21,17.33,33.24,25.32,55.52,25.64Zm-80.12-164.99c-11.88.79-19.72,6.08-19.88,18.09-.2,14.75,9.86,21.18,22.78,21.55,11.04.32,19.51-6.34,19.71-18.03.24-14.6-10.12-19.91-22.61-21.6Zm183.85-12.74c-10.79,1.03-17.91,6.71-18.27,17.52-.35,10.71,5.59,17.77,16.98,17.9,11.05.12,17.57-5.99,18.08-16.99.53-11.26-6.16-16.88-16.79-18.42Z" style="fill: #e5d7c4;"/>
  <path d="m732.75,494.74c-10.82,53.71-20.13,112.69-66.62,156.98-18.18,17.32-38.33,28.67-63.86,31.38-47.33,5.03-94.25,5.38-140.73-6.37-25.3-6.4-47.39-18.3-65.64-37.27-14.3-14.87-27.04-30.89-38.43-48.07-22.99-34.67-34.08-71.06-19.63-112.55,5.69-16.33,7.97-33.82,12.68-50.53,8.83-31.34,24.61-58.24,51.25-78.13,11.46-8.56,21.88-18.49,33.21-27.24,10.83-8.36,22.82-12.39,32.8.57,9.56,12.4,2.13,22-7.72,30.25-4.77,4-9.14,8.66-14.41,11.85-56.67,34.22-64,92.61-73.59,149.84-2.16,12.87,2.6,24.6,7.98,35.89,33.54,70.29,101.39,106.43,178.81,95.47,7.38-1.04,14.88-2.63,22.24-2.26,43.36,2.17,68.11-23.45,84.41-58.65,11.15-24.1,20.83-49.44,24.56-76.02,8.85-63.09-18.57-111.42-66.31-148.83-20.46-16.03-46.91-14.85-71.84-10.13-10.62,2.01-21.18,2.18-31.49,1.08-11.5-1.23-19.84-8.97-19.6-21.08.22-11.28,7.97-18.89,19.28-19.08,29.19-.48,58.5-5.03,87.56.2,21.3,3.83,39.55,14.38,55.41,29.18,43,40.13,65.62,89.59,69.67,153.52Z" style="fill: #6a6967;"/>
  <path d="m513.21,592.08c-22.28-.32-41.31-8.31-55.52-25.64-8.45-10.3-9.91-22.31,1.28-31.5,10.7-8.79,20.14-4.31,28.95,5.4,14.12,15.59,32.12,15.88,47.54,1.92,2.3-2.08,4.42-4.38,6.47-6.71,13.91-15.82,26.95-20.19,35.55-10.7,13.3,14.68,2.72,26.5-6.63,37.44-17.62,20.61-35.77,29.62-57.64,29.79Z" style="fill: #6a6967;"/>
  <path d="m433.09,427.09c12.49,1.7,22.85,7.01,22.61,21.6-.19,11.69-8.66,18.35-19.71,18.03-12.93-.37-22.99-6.8-22.78-21.55.17-12.01,8-17.3,19.88-18.09Z" style="fill: #6a6967;"/>
  <path d="m616.95,414.34c10.64,1.54,17.32,7.17,16.79,18.42-.51,11-7.03,17.11-18.08,16.99-11.39-.12-17.33-7.18-16.98-17.9.35-10.8,7.48-16.48,18.27-17.52Z" style="fill: #6a6967;"/>
</svg>