<?xml version="1.0" encoding="UTF-8"?>
<svg id="a" data-name="Layer 1" xmlns="http://www.w3.org/2000/svg" viewBox="0 0 1000 1000">
  <path
    d="m999.47,332.92c4.28,45.06-18.03,87.96-45.07,127.99-45.03,66.65-98.09,127.09-161.49,176.61-60.97,47.62-125.18,91.13-188.55,135.6-13.81,9.69-29.77,16.65-45.36,23.44-65.66,28.61-130.46,59.7-197.76,83.81-40.57,14.53-84.84,20.41-128,25.46-34,3.97-69.04,3.07-103.26.11-43.69-3.77-85.79-16.71-110.09-56.72-11.25-18.52-17.58-42.19-19.16-64.03-5.4-74.63,19.09-142.47,54.86-206.48,50.47-90.31,117.48-167.86,192.22-238.41,68.04-64.22,139.64-124.77,223.46-168.01,28.58-14.75,59.93-24.2,90.2-35.59,10.55-3.97,21.93-5.77,32.46-9.81,45.38-17.42,92.03-28.23,140.52-33.42,37.49-4.01,73.68-1.84,110.23,6.43,39.57,8.95,72.23,28.96,96.36,60.64,37.16,48.78,59.06,103.72,58.42,172.38Z"
    style="fill: #e3b47344;" />
</svg>