<svg width="378" height="297" viewBox="0 0 378 297" fill="none" xmlns="http://www.w3.org/2000/svg">
<path fill-rule="evenodd" clip-rule="evenodd" d="M377.678 5.21838C377.566 4.48538 377.149 3.79905 376.517 2.76043C373.851 -1.62018 373.296 -1.27308 367.433 8.4257C321.549 84.3323 266.54 146.586 246.642 145.125C232.5 144.087 235.19 102.423 252.722 51.0109C258.608 33.7448 258.978 30.6419 255.314 29.2366C253.877 28.686 217.775 73.2521 204.101 92.4571C199.609 98.7657 194.803 105.274 193.421 106.92C192.464 108.058 191.805 109.102 191.502 109.007C190.88 108.813 191.761 103.816 194.649 84.9766C199.112 55.8733 198.435 47.5988 191.199 42.7973C187.997 40.6718 184.175 45.1372 166.535 71.6163C139.545 112.132 110.178 151.174 110.178 146.542C110.178 145.948 111.75 138.279 113.671 129.5C118.312 108.291 118.307 103.64 113.638 98.9732C106.809 92.1489 103.807 93.7996 87.4815 113.36C81.7375 120.241 76.5304 125.87 75.9087 125.87C75.288 125.87 74.4278 123.402 73.9967 120.384C72.1985 107.777 62.5387 99.437 54.1093 103.212C38.3194 110.284 -4.29047 172.452 0.508488 181.415C2.49034 185.115 4.79951 183.389 8.82908 175.196C23.0433 146.293 53.8209 108.416 63.0905 108.416C65.6053 108.416 66.239 110.911 66.2579 120.883C66.2749 129.786 67.9653 134.386 72.42 137.649C76.8158 140.868 79.1749 139.385 89.8735 126.675C102.519 111.653 107.907 105.813 108.54 106.446C108.819 106.725 107.329 115.922 105.229 126.885C99.5263 156.657 99.5223 156.703 102.561 159.739C106.998 164.175 109.221 163.248 117.419 153.548C137.683 129.572 152.735 109.013 173.1 77.496C188.934 52.9918 191.008 50.1661 192.252 51.4099C193.491 52.6477 191.629 70.1781 187.894 92.4571C182.888 122.323 182.349 123.974 172.266 140.333C135.721 199.622 111.176 258.13 111.176 285.957C111.176 296.944 121.446 299.937 129.147 291.192C143.137 275.308 171.179 200.118 182.994 146.816C185.421 135.868 187.87 131.332 204.813 106.421C215.053 91.365 246.01 50.3497 246.651 50.99C246.903 51.2413 245.495 57.4203 243.524 64.7213C227.871 122.687 230.758 150.31 252.468 150.306C275.358 150.303 325.307 96.5465 364.143 30.1193C367.35 24.6335 371.865 16.9226 374.177 12.9838C376.954 8.25155 377.896 6.6464 377.678 5.21838ZM120.723 282.463C124.157 254.236 146.954 198.198 169.719 162.026C172.611 157.431 173.424 157.286 172.498 161.527C164.226 199.408 117.57 308.39 120.723 282.463Z" fill="#4E3822"/>
</svg>
