<?xml version="1.0" encoding="utf-8"?>
<!-- Generator: Adobe Illustrator 27.7.0, SVG Export Plug-In . SVG Version: 6.00 Build 0)  -->
<svg version="1.1" id="Layer_1" xmlns="http://www.w3.org/2000/svg" xmlns:xlink="http://www.w3.org/1999/xlink" x="0px" y="0px"
	 viewBox="0 0 378 297" style="enable-background:new 0 0 378 297;" xml:space="preserve">
<style type="text/css">
	.st0{fill-rule:evenodd;clip-rule:evenodd;fill:#4E3822;}
</style>
<path class="st0" d="M376.9,6.8c0.5-1,0.4-2.2-0.1-3.2c-2.4-4.4-5.1-5.2-10.6,4c-70,115.7-158.1,212.7-113.5,43.5
	c4.7-17.6,9.6-24.5,2.6-21.8c-5.3,2.1-37.5,44-51.2,63.2c-4.5,6.3-14.1,22.2-13.5,20.2c2.2-7.1,18.9-71.3,1.7-68.2
	c-3.8,0.7-8.1,0.6-25.8,27.1c-27,40.5-56.6,77.9-56.4,74.9c0.6-8.1,9-43.9,4.8-49.3c-6.9-8.8-27.2,17.1-36.6,28.2
	c-1.1,1.3-3.2,0.8-3.6-0.8c-5.3-18.1-9.3-26.8-20.6-21.5c-15.8,7.1-58.4,69.2-53.6,78.2c2,3.7,4.3,2,8.3-6.2
	c14.2-28.9,43.3-68.5,52.4-66.9c5,0.9,4.3,20.1,11.1,25.3c2.5,1.9,8.2,3.5,16.6-7.6c11.8-15.7,19.3-20.4,19.6-19.6
	c0.4,1.2-1.3,9.5-3.3,20.4c-5.2,28.2-5.2,30.3-2.7,32.9c14.7,14.6,75.4-97.9,88.9-107.8c0.4-0.3,0.9,0,1,0.4
	c1.2,12.9-11.3,75-20.1,88c-38.8,57.3-72.4,140.3-57.6,149.2c30.5,18.3,61.5-98.6,68.4-142.7c2.4-15.2,56.9-88.9,63.7-95.8
	C193,243.2,327.5,111.4,376.9,6.8z M120.5,281.1c-8.2-9.3,26.5-82.9,49.2-119.1c2.9-4.6,3.7-4.7,2.8-0.5
	C164.2,199.4,132.1,291.9,120.5,281.1z"/>
</svg>
